<svg role="img" aria-label="ScaleLab AI" viewBox="0 0 56 56" fill="none" xmlns="http://www.w3.org/2000/svg">
          <polygon points="28,4 52,17 52,39 28,52 4,39 4,17" stroke="#00D4FF" stroke-width="1.5" fill="none"/>
          <polygon points="28,14 44,23 44,33 28,42 12,33 12,23" stroke="#00D4FF" stroke-width="1" fill="none" opacity="0.5"/>
          <line x1="4"  y1="17" x2="12" y2="23" stroke="#00D4FF" stroke-width="1" opacity="0.6"/>
          <line x1="52" y1="17" x2="44" y2="23" stroke="#00D4FF" stroke-width="1" opacity="0.6"/>
          <line x1="4"  y1="39" x2="12" y2="33" stroke="#00D4FF" stroke-width="1" opacity="0.6"/>
          <line x1="52" y1="39" x2="44" y2="33" stroke="#00D4FF" stroke-width="1" opacity="0.6"/>
          <line x1="28" y1="4"  x2="28" y2="14" stroke="#00D4FF" stroke-width="1" opacity="0.6"/>
          <line x1="28" y1="52" x2="28" y2="42" stroke="#00D4FF" stroke-width="1" opacity="0.6"/>
          <circle cx="28" cy="28" r="4"   fill="#00D4FF" opacity="0.9"/>
          <circle cx="28" cy="28" r="2"   fill="#ffffff"/>
          <circle cx="28" cy="4"  r="2.5" fill="#00D4FF"/>
          <circle cx="52" cy="17" r="2.5" fill="#00D4FF"/>
          <circle cx="52" cy="39" r="2.5" fill="#00D4FF"/>
          <circle cx="28" cy="52" r="2.5" fill="#00D4FF"/>
          <circle cx="4"  cy="39" r="2.5" fill="#00D4FF"/>
          <circle cx="4"  cy="17" r="2.5" fill="#00D4FF"/>
        </svg>